<svg width="14" height="21" viewBox="0 0 14 21" fill="none" xmlns="http://www.w3.org/2000/svg">
<path d="M7.208 17.204C6.30133 17.204 5.457 17.0397 4.675 16.711C3.893 16.3823 3.20733 15.9233 2.618 15.334C2.02867 14.7447 1.56967 14.0533 1.241 13.26C0.912333 12.4667 0.748 11.5997 0.748 10.659C0.748 9.71833 0.906667 8.85133 1.224 8.058C1.54133 7.25333 1.989 6.562 2.567 5.984C3.145 5.39467 3.81933 4.94133 4.59 4.624C5.372 4.29533 6.222 4.131 7.14 4.131C8.058 4.131 8.87967 4.284 9.605 4.59C10.3417 4.896 10.965 5.304 11.475 5.814C11.985 6.324 12.3477 6.89067 12.563 7.514L10.234 8.636C10.0187 8.024 9.639 7.51967 9.095 7.123C8.56233 6.715 7.91067 6.511 7.14 6.511C6.392 6.511 5.73467 6.68667 5.168 7.038C4.60133 7.38933 4.15933 7.87667 3.842 8.5C3.536 9.112 3.383 9.83167 3.383 10.659C3.383 11.4863 3.54733 12.2117 3.876 12.835C4.20467 13.4583 4.65233 13.9457 5.219 14.297C5.797 14.6483 6.46 14.824 7.208 14.824C7.786 14.824 8.32433 14.7163 8.823 14.501C9.333 14.2743 9.741 13.9513 10.047 13.532C10.3643 13.1127 10.523 12.6083 10.523 12.019V10.965L11.73 11.985H7.14V9.775H13.158V11.118C13.158 12.1493 12.988 13.0503 12.648 13.821C12.308 14.5803 11.849 15.215 11.271 15.725C10.7043 16.2237 10.064 16.5977 9.35 16.847C8.64733 17.085 7.93333 17.204 7.208 17.204Z" fill="url(#paint0_linear_33_1395)"/>
<defs>
<linearGradient id="paint0_linear_33_1395" x1="-2.13277" y1="1.98784" x2="14.8495" y2="20.2082" gradientUnits="userSpaceOnUse">
<stop stop-color="#4285F4"/>
<stop offset="0.333333" stop-color="#34A853"/>
<stop offset="0.666667" stop-color="#FBBC05"/>
<stop offset="1" stop-color="#EA4335"/>
</linearGradient>
</defs>
</svg>
